#!OML:ASF H:\charlestonDancing\Project 1\Capture day 1\Session 1\femaleDancer.ASF
:FULLY-SPECIFIED
:DEGREES
18
root -15.1946 17.4373 0.194297 354.319 -83.4862 -349.92
lowerback 19.1208 -0.606339 1.80664
upperback 3.16147 -0.800172 -2.27821
thorax -7.34204 -0.534911 -3.27867
lowerneck 1.07316 3.04544 4.68914
upperneck -1.65755 4.08072 -3.87745
head -0.514268 2.04453 -2.03683
rclavicle -1.74931e-014 4.37326e-015
rhumerus -30.3122 7.06992 -84.323
rradius 36.5835
rwrist 53.8285
rhand -35.8801 -34.8019
rfingers 7.12502
rthumb -8.99408 -64.5902
lclavicle -1.74931e-014 4.37326e-015
lhumerus -39.4351 3.67958 76.0741
lradius 39.1588
lwrist -15.3315
lhand -28.7169 1.13772
lfingers 7.12502
lthumb -2.07825 31.1073
rfemur -24.5085 4.75192 21.7514
rtibia 44.0125
rfoot -21.2547 -4.54699
rtoes -18.4566
lfemur -27.2282 0.389737 -21.2593
ltibia 43.8064
lfoot 9.52701 -29.8551
ltoes 3.83887
19
root -15.1446 17.4297 0.134004 360.235 -82.0267 -355.085
lowerback 19.341 -0.775006 2.59146
upperback 3.04995 -0.817147 -1.92395
thorax -7.58694 -0.558822 -3.34154
lowerneck 0.443093 2.77035 4.44969
upperneck -1.48413 3.68222 -4.23717
head -0.36811 1.84329 -2.09621
rclavicle 1.75924e-014 2.38542e-015
rhumerus -31.0779 1.81185 -79.746
rradius 34.145
rwrist 55.793
rhand -35.0877 -35.2559
rfingers 7.12502
rthumb -8.22943 -65.0756
lclavicle 1.75924e-014 2.38542e-015
lhumerus -40.5768 4.81543 72.7784
lradius 37.4287
lwrist -17.8432
lhand -29.0223 1.53409
lfingers 7.12502
lthumb -2.37321 31.5006
rfemur -25.4288 3.92108 22.5023
rtibia 43.8597
rfoot -20.6528 -5.43497
rtoes -18.6503
lfemur -28.7454 -0.264404 -20.0284
ltibia 44.3207
lfoot 14.4448 -30.9764
ltoes 8.38674
20
root -15.1043 17.4386 0.0785722 365.652 -80.7429 -359.733
lowerback 19.4257 -0.901824 3.42142
upperback 2.91373 -0.759238 -1.47819
thorax -7.77915 -0.547833 -3.34878
lowerneck -0.0274544 2.45572 3.98831
upperneck -1.47298 3.23883 -4.37048
head -0.30977 1.61905 -2.04934
rclavicle -2.98177e-016 1.63003e-014
rhumerus -32.077 -4.38327 -74.1013
rradius 31.4095
rwrist 56.5593
rhand -34.1236 -34.0482
rfingers 7.12502
rthumb -7.29888 -63.9023
lclavicle -2.98177e-016 1.63003e-014
lhumerus -41.8703 5.69556 69.126
lradius 35.5176
lwrist -19.9908
lhand -28.9457 1.76947
lfingers 7.12502
lthumb -2.29927 31.7368
rfemur -26.2703 3.28842 23.4016
rtibia 43.5192
rfoot -20.0105 -5.9616
rtoes -18.5509
lfemur -30.1365 -1.06079 -18.5591
ltibia 44.8418
lfoot 15.2018 -32.2367
ltoes 7.22435
21
root -15.0748 17.4632 0.0327056 369.021 -79.5675 -362.431
lowerback 19.5011 -1.00305 4.01499
upperback 2.77346 -0.721218 -1.09188
thorax -7.97095 -0.543281 -3.2789
lowerneck -0.193991 2.13622 3.7787
upperneck -1.68033 2.79591 -4.57136
head -0.365695 1.39714 -2.07785
rclavicle 3.67752e-015 1.61016e-014
rhumerus -33.5681 -10.9038 -67.6675
rradius 28.6423
rwrist 55.7327
rhand -32.9277 -35.586
rfingers 7.12502
rthumb -6.14442 -65.4769
lclavicle 3.67752e-015 1.61016e-014
lhumerus -43.3398 6.42994 65.0545
lradius 33.6084
lwrist -21.7847
lhand -28.5314 2.23639
lfingers 7.12502
lthumb -1.89916 32.2077
rfemur -26.8819 2.55353 24.097
rtibia 42.9702
rfoot -19.4716 -6.14271
rtoes -19.201
lfemur -31.2178 -2.22478 -17.2119
ltibia 45.4835
lfoot 11.4978 -33.4421
ltoes 1.51622
22
root -15.0526 17.4976 -0.00313077 371.107 -78.5614 -363.941
lowerback 19.4973 -1.11361 4.30464
upperback 2.66295 -0.766398 -0.743561
thorax -8.09233 -0.569907 -3.05376
lowerneck -0.161018 1.90107 3.76576
upperneck -1.98489 2.46859 -4.79624
head -0.478521 1.23491 -2.15313
rclavicle 2.127e-014 -3.77691e-015
rhumerus -35.6354 -17.2718 -60.4612
rradius 26.2413
rwrist 54.306
rhand -31.058 -37.3269
rfingers 7.12502
rthumb -4.33913 -67.2625
lclavicle 2.127e-014 -3.77691e-015
lhumerus -44.968 7.26344 60.5646
lradius 31.7837
lwrist -22.9658
lhand -27.3722 2.94871
lfingers 7.12502
lthumb -0.779545 32.927
rfemur -27.2882 1.62915 24.6221
rtibia 42.2465
rfoot -19.0464 -5.86017
rtoes -19.432
lfemur -31.673 -3.49183 -16.0438
ltibia 46.3613
lfoot -0.180097 -32.8014
ltoes -13.0694
23
root -15.0367 17.5378 -0.0354713 372.422 -77.7807 -364.741
lowerback 19.3468 -1.16216 4.27831
upperback 2.63204 -0.81021 -0.422597
thorax -8.04335 -0.5831 -2.67886
lowerneck -0.247007 1.70288 3.76113
upperneck -2.14123 2.1939 -4.86162
head -0.524673 1.09677 -2.17427
rclavicle 9.72802e-015 2.10215e-014
rhumerus -38.2833 -23.1512 -52.718
rradius 24.2379
rwrist 51.8629
rhand -30.1861 -39.3091
rfingers 7.12502
rthumb -3.49715 -69.2601
lclavicle 9.72802e-015 2.10215e-014
lhumerus -46.4326 8.40408 55.6146
lradius 29.7978
lwrist -23.7399
lhand -25.443 3.89566
lfingers 7.12502
lthumb 1.0837 33.8727
rfemur -27.5521 0.74393 25.0089
rtibia 41.3986
rfoot -18.6555 -5.34341
rtoes -18.6183
lfemur -31.4903 -4.61291 -15.0144
ltibia 47.5893
lfoot -13.3693 -26.0569
ltoes -29.3234
24
root -15.027 17.5894 -0.0673552 372.771 -77.2341 -364.623
lowerback 19.1062 -1.11223 3.91846
upperback 2.64859 -0.808236 -0.187847
thorax -7.88682 -0.563811 -2.22127
lowerneck -0.34266 1.47317 3.76091
upperneck -2.21068 1.88456 -4.68817
head -0.545698 0.939944 -2.11681
rclavicle 1.09642e-015 -2.01704e-014
rhumerus -41.5345 -28.435 -44.6012
rradius 22.8331
rwrist 48.0593
rhand -29.3439 -40.3405
rfingers 7.12502
rthumb -2.68381 -70.3034
lclavicle 1.09642e-015 -2.01704e-014
lhumerus -47.7078 10.0804 50.0193
lradius 27.6612
lwrist -24.7016
lhand -23.3565 5.39334
lfingers 7.12502
lthumb 3.09886 35.3506
rfemur -27.6187 0.108478 25.1562
rtibia 40.4025
rfoot -18.2287 -4.86228
rtoes -16.5929
lfemur -31.0044 -5.33117 -14.3051
ltibia 49.1952
lfoot -20.3638 -18.0472
ltoes -34.0339
25
root -15.0191 17.648 -0.0944451 373.103 -76.8264 -364.528
lowerback 18.8321 -1.06101 3.5919
upperback 2.63371 -0.804082 -0.051316
thorax -7.74812 -0.546834 -1.89093
lowerneck -0.113767 1.18558 3.67352
upperneck -2.4583 1.51113 -4.13448
head -0.682718 0.753245 -1.92434
rclavicle 8.658e-015 -2.91344e-015
rhumerus -45.8606 -33.5192 -35.6292
rradius 22.1365
rwrist 46.4463
rhand -29.939 -42.4912
rfingers 7.12502
rthumb -3.25856 -72.446
lclavicle 8.658e-015 -2.91344e-015
lhumerus -49.1149 12.5648 43.4408
lradius 25.7194
lwrist -26.1005
lhand -21.5599 7.13483
lfingers 7.12502
lthumb 4.83372 37.0597
rfemur -27.5243 -0.382438 25.2883
rtibia 39.2682
rfoot -17.6961 -4.49252
rtoes -15.9916
lfemur -30.1918 -5.28702 -13.8791
ltibia 51.0909
lfoot -21.3065 -13.735
ltoes -31.968
26
root -15.012 17.718 -0.117331 374.287 -76.4898 -365.362
lowerback 18.6126 -1.08161 3.58436
upperback 2.58504 -0.830125 0.0296423
thorax -7.68208 -0.555985 -1.79451
lowerneck 0.113944 0.987979 4.02336
upperneck -2.52262 1.25978 -3.99366
head -0.751583 0.625972 -1.94314
rclavicle -9.06023e-015 -2.09718e-014
rhumerus -50.8918 -37.4333 -26.8433
rradius 22.3157
rwrist 46.1325
rhand -28.746 -45.7411
rfingers 7.12502
rthumb -2.10643 -75.7104
lclavicle -9.06023e-015 -2.09718e-014
lhumerus -50.9329 16.1886 35.5387
lradius 24.2083
lwrist -28.3283
lhand -20.3871 9.39918
lfingers 7.12502
lthumb 5.96613 39.2952
rfemur -27.3295 -0.81468 25.6895
rtibia 38.0616
rfoot -16.9083 -4.36633
rtoes -18.245
lfemur -29.1077 -4.4746 -13.5117
ltibia 53.0179
lfoot -19.7047 -12.3314
ltoes -31.3198
27
root -15.0056 17.8037 -0.137874 374.816 -76.3118 -365.563
lowerback 18.3843 -1.13344 3.47613
upperback 2.55433 -0.927698 -0.00423644
thorax -7.59608 -0.597959 -1.74748
lowerneck 0.287418 0.886096 4.11321
upperneck -2.53125 1.14287 -3.50418
head -0.790089 0.564421 -1.80119
rclavicle -4.31611e-014 -7.55382e-015
rhumerus -55.9878 -40.1798 -18.8013
rradius 22.7272
rwrist 46.0346
rhand -30.1584 -48.3457
rfingers 7.12502
rthumb -3.47041 -78.2972
lclavicle -4.31611e-014 -7.55382e-015
lhumerus -53.3523 20.7311 26.5418
lradius 23.0852
lwrist -31.5503
lhand -20.6651 12.2665
lfingers 7.12502
lthumb 5.69773 42.1699
rfemur -27.123 -1.27346 25.9764
rtibia 36.8563
rfoot -15.8592 -4.25094
rtoes -19.6633
lfemur -27.7596 -3.38669 -13.4735
ltibia 54.7698
lfoot -14.0046 -13.7894
ltoes -24.3148
28
root -14.9966 17.8864 -0.154673 373.744 -76.3784 -364.077
lowerback 18.0644 -1.10235 3.02534
upperback 2.5261 -0.997037 -0.186275
thorax -7.45287 -0.617806 -1.67364
lowerneck 0.341174 0.817983 4.10174
upperneck -2.36577 1.06879 -2.99073
head -0.751681 0.524387 -1.63196
rclavicle 1.717e-014 1.74931e-014
rhumerus -60.8665 -41.9485 -11.7404
rradius 23.307
rwrist 46.8136
rhand -32.3083 -51.9908
rfingers 7.12502
rthumb -5.54638 -81.8983
lclavicle 1.717e-014 1.74931e-014
lhumerus -56.3124 25.5907 17.1729
lradius 22.1659
lwrist -35.9915
lhand -22.4465 14.0849
lfingers 7.12502
lthumb 3.97761 44.0275
rfemur -27.1084 -1.84552 25.8821
rtibia 35.8319
rfoot -14.5677 -3.91944
rtoes -18.2965
lfemur -26.3407 -1.36329 -14.5092
ltibia 56.0627
lfoot -9.3697 -13.0872
ltoes -34.5888
29
root -14.9855 17.9662 -0.165621 372.524 -76.5635 -362.342
lowerback 17.6768 -0.982152 2.61695
upperback 2.44896 -0.936799 -0.360499
thorax -7.31886 -0.576653 -1.64684
lowerneck 0.319211 0.712451 4.10507
upperneck -2.13482 0.935222 -2.76732
head -0.6813 0.457051 -1.55811
rclavicle 3.38431e-014 -2.88238e-014
rhumerus -65.0502 -42.7215 -6.20421
rradius 23.9443
rwrist 47.7102
rhand -32.4057 -55.4342
rfingers 7.12502
rthumb -5.64044 -85.3392
lclavicle 3.38431e-014 -2.88238e-014
lhumerus -59.8369 30.267 7.99174
lradius 21.3752
lwrist -42.4629
lhand -24.4013 13.4848
lfingers 7.12502
lthumb 2.08981 43.4543
rfemur -27.3839 -2.59727 25.8451
rtibia 35.1463
rfoot -13.2851 -3.93204
rtoes -17.3974
lfemur -24.8363 0.825343 -15.7749
ltibia 56.7932
lfoot -2.30833 -12.3972
ltoes -27.8829
30
root -14.97 18.0291 -0.170248 371.249 -76.8525 -360.474
lowerback 17.313 -0.832881 2.22391
upperback 2.29588 -0.826127 -0.502891
thorax -7.27702 -0.512166 -1.60478
lowerneck 0.240457 0.604935 4.11163
upperneck -1.92946 0.7908 -2.80743
head -0.609206 0.385915 -1.56957
rclavicle -1.48343e-014 1.12313e-014
rhumerus -68.5015 -43.0948 -1.79021
rradius 24.4812
rwrist 46.1245
rhand -32.8714 -58.1587
rfingers 7.12502
rthumb -6.09007 -88.0511
lclavicle -1.48343e-014 1.12313e-014
lhumerus -62.3078 32.6178 2.69518
lradius 21.0137
lwrist -46.6394
lhand -27.6481 17.0489
lfingers 7.12502
lthumb -1.04607 47.0261
rfemur -28.046 -3.47478 25.8776
rtibia 34.9538
rfoot -12.8808 -4.39749
rtoes -11.9594
lfemur -23.132 3.1624 -17.2336
ltibia 56.909
lfoot 1.17696 -12.0093
ltoes -28.5391
31
root -14.946 18.0585 -0.164895 368.921 -77.2878 -357.386
lowerback 16.962 -0.61832 1.64721
upperback 2.03797 -0.662338 -0.709821
thorax -7.35198 -0.418239 -1.53829
lowerneck 0.0387576 0.491702 4.07299
upperneck -1.70387 0.63275 -2.91695
head -0.510641 0.307732 -1.59488
rclavicle -9.74045e-015 6.36111e-015
rhumerus -70.9197 -42.9079 0.763229
rradius 25.2465
rwrist 40.9764
rhand -34.2135 -61.5607
rfingers 7.12502
rthumb -7.38561 91.4118
lclavicle -9.74045e-015 6.36111e-015
lhumerus -63.7429 33.758 0.228353
lradius 20.7256
lwrist -48.3487
lhand -28.4375 17.2296
lfingers 7.12502
lthumb -1.80843 47.2017
rfemur -29.2399 -5.9389 26.4734
rtibia 35.1587
rfoot -12.1707 -5.53349
rtoes -14.9171
lfemur -21.8001 5.92656 -19.334
ltibia 56.4656
lfoot 1.76606 -11.2013
ltoes -33.8435
32
root -14.912 18.067 -0.151986 367.448 -77.8122 -354.91
lowerback 16.504 -0.304696 1.33429
upperback 1.68007 -0.311022 -0.864551
thorax -7.47109 -0.239607 -1.60765
lowerneck -0.398258 0.320021 4.08271
upperneck -1.3849 0.387555 -3.19993
head -0.346732 0.184467 -1.68402
rclavicle -2.87368e-014 1.51698e-014
rhumerus -72.4601 -42.3051 1.56866
rradius 25.9655
rwrist 34.886
rhand -33.8295 -60.1152
rfingers 7.12502
rthumb -7.01499 270.021
lclavicle -2.87368e-014 1.51698e-014
lhumerus -62.2118 32.5386 4.16844
lradius 21.0941
lwrist -42.8553
lhand -26.2762 17.1999
lfingers 7.12502
lthumb 0.278935 47.1794
rfemur -31.1064 -8.6788 27.5971
rtibia 35.8172
rfoot -11.7948 -6.11851
rtoes -17.0265
lfemur -20.704 8.59077 -21.3379
ltibia 55.3312
lfoot 2.88194 -9.88845
ltoes -31.2132
